<?xml version="1.0" encoding="UTF-8" standalone="no"?>
<!-- Created with Inkscape (http://www.inkscape.org/) -->

<svg
   xmlns:dc="http://purl.org/dc/elements/1.1/"
   xmlns:cc="http://creativecommons.org/ns#"
   xmlns:rdf="http://www.w3.org/1999/02/22-rdf-syntax-ns#"
   xmlns:svg="http://www.w3.org/2000/svg"
   xmlns="http://www.w3.org/2000/svg"
   xmlns:sodipodi="http://sodipodi.sourceforge.net/DTD/sodipodi-0.dtd"
   xmlns:inkscape="http://www.inkscape.org/namespaces/inkscape"
   width="19"
   height="19"
   id="svg4486"
   version="1.1"
   inkscape:version="0.48+devel r"
   viewBox="0 0 19 19"
   sodipodi:docname="minimize_dash_prelight.svg">
  <defs
     id="defs4488">
    <filter
       inkscape:collect="always"
       style="color-interpolation-filters:sRGB"
       id="filter4411"
       x="-0.12"
       width="1.24"
       y="-0.12"
       height="1.24">
      <feGaussianBlur
         inkscape:collect="always"
         stdDeviation="0.75"
         id="feGaussianBlur4413" />
    </filter>
  </defs>
  <sodipodi:namedview
     id="base"
     pagecolor="#ffffff"
     bordercolor="#666666"
     borderopacity="1.0"
     inkscape:pageopacity="0.0"
     inkscape:pageshadow="2"
     inkscape:zoom="7.9580786"
     inkscape:cx="-7.3730107"
     inkscape:cy="9.9678584"
     inkscape:document-units="px"
     inkscape:current-layer="layer1"
     showgrid="false"
     fit-margin-top="0"
     fit-margin-left="0"
     fit-margin-right="0"
     fit-margin-bottom="0" />
  <metadata
     id="metadata4491">
    <rdf:RDF>
      <cc:Work
         rdf:about="">
        <dc:format>image/svg+xml</dc:format>
        <dc:type
           rdf:resource="http://purl.org/dc/dcmitype/StillImage" />
        <dc:title></dc:title>
      </cc:Work>
    </rdf:RDF>
  </metadata>
  <g
     inkscape:label="Layer 1"
     inkscape:groupmode="layer"
     id="layer1"
     transform="translate(290.21429,-522.86219)">
    <g
       style="display:inline"
       id="g4265"
       transform="translate(-289.71429,-473.00011)">
      <path
         style="color:#000000;fill:#ffffff;fill-opacity:1;fill-rule:nonzero;stroke:none;stroke-width:8;marker:none;visibility:visible;display:inline;overflow:visible;enable-background:accumulate"
         d="M 85.5,59.5 A 7.4999794,7.4999794 0 0 0 78,67 7.4999794,7.4999794 0 0 0 85.5,74.5 7.4999794,7.4999794 0 0 0 93,67 7.4999794,7.4999794 0 0 0 85.5,59.5 Z m -3.5,7 7,0 0,1 -7,0 0,-1 z"
         transform="translate(-76.500002,938.36224)"
         id="path4267"
         inkscape:connector-curvature="0" />
      <rect
         style="color:#000000;fill:none;stroke:none;stroke-width:1;marker:none;visibility:visible;display:inline;overflow:visible;enable-background:accumulate"
         id="rect4269"
         width="19"
         height="19"
         x="-0.5000006"
         y="995.8623" />
      <path
         inkscape:connector-curvature="0"
         id="path4409"
         transform="translate(-76.500002,938.36224)"
         d="M 85.5,59.5 A 7.4999794,7.4999794 0 0 0 78,67 7.4999794,7.4999794 0 0 0 85.5,74.5 7.4999794,7.4999794 0 0 0 93,67 7.4999794,7.4999794 0 0 0 85.5,59.5 Z m -3.5,7 7,0 0,1 -7,0 0,-1 z"
         style="color:#000000;fill:#ffffff;fill-opacity:1;fill-rule:nonzero;stroke:none;stroke-width:8;marker:none;visibility:visible;display:inline;overflow:visible;filter:url(#filter4411);enable-background:accumulate" />
    </g>
  </g>
</svg>
