<?xml version="1.0" encoding="UTF-8" standalone="no"?>
<svg
   xmlns:dc="http://purl.org/dc/elements/1.1/"
   xmlns:cc="http://creativecommons.org/ns#"
   xmlns:rdf="http://www.w3.org/1999/02/22-rdf-syntax-ns#"
   xmlns:svg="http://www.w3.org/2000/svg"
   xmlns="http://www.w3.org/2000/svg"
   xmlns:sodipodi="http://sodipodi.sourceforge.net/DTD/sodipodi-0.dtd"
   xmlns:inkscape="http://www.inkscape.org/namespaces/inkscape"
   width="16"
   height="16"
   viewBox="0 0 16 16"
   fill="#FFFFFF"
   opacity="0.75"
   version="1.1"
   id="svg4"
   sodipodi:docname="calendar-arrow-left.svg"
   inkscape:version="0.92+devel unknown">
  <metadata
     id="metadata10">
    <rdf:RDF>
      <cc:Work
         rdf:about="">
        <dc:format>image/svg+xml</dc:format>
        <dc:type
           rdf:resource="http://purl.org/dc/dcmitype/StillImage" />
      </cc:Work>
    </rdf:RDF>
  </metadata>
  <defs
     id="defs8" />
  <sodipodi:namedview
     pagecolor="#ffffff"
     bordercolor="#666666"
     borderopacity="1"
     objecttolerance="10"
     gridtolerance="10"
     guidetolerance="10"
     inkscape:pageopacity="0"
     inkscape:pageshadow="2"
     inkscape:window-width="1848"
     inkscape:window-height="1137"
     id="namedview6"
     showgrid="false"
     inkscape:zoom="20.85965"
     inkscape:cx="10.850794"
     inkscape:cy="8.689197"
     inkscape:window-x="1438"
     inkscape:window-y="30"
     inkscape:window-maximized="1"
     inkscape:current-layer="svg4"
     inkscape:document-rotation="0" />
  <path
     inkscape:connector-curvature="0"
     id="path5096"
     d="m 10.5395,1.1113699 c 0,0.8291579 -0.267533,1.493864 -1.0535647,2.6176562 C 8.9064748,4.5574836 8.1262969,5.890641 7.752207,6.6915984 c -0.680164,1.4562863 -0.680164,1.4562863 0,2.9125725 0.3740899,0.8009571 1.1608066,2.1434501 1.748259,2.9833151 0.875323,1.25143 1.052797,1.728575 0.983327,2.643723 -0.08476,1.116689 -0.08476,1.116689 -1.3818826,-0.665384 C 8.3884976,13.585684 7.2019773,11.74068 6.4651984,10.465816 5.1256005,8.1478847 5.1256005,8.1478847 6.4651984,5.8299519 7.6668595,3.7506941 10.232544,7.0650413e-8 10.453211,7.0650413e-8 10.500661,7.0650413e-8 10.539501,0.50011668 10.5395,1.1113699 Z"
     style="fill:#ffffff;fill-opacity:1;stroke-width:0.28095606" />
</svg>
