<?xml version="1.0" encoding="UTF-8" standalone="no"?>
<!-- Created with Inkscape (http://www.inkscape.org/) -->

<svg
   xmlns:dc="http://purl.org/dc/elements/1.1/"
   xmlns:cc="http://creativecommons.org/ns#"
   xmlns:rdf="http://www.w3.org/1999/02/22-rdf-syntax-ns#"
   xmlns:svg="http://www.w3.org/2000/svg"
   xmlns="http://www.w3.org/2000/svg"
   xmlns:sodipodi="http://sodipodi.sourceforge.net/DTD/sodipodi-0.dtd"
   xmlns:inkscape="http://www.inkscape.org/namespaces/inkscape"
   width="120mm"
   height="120mm"
   viewBox="0 0 120 120"
   version="1.1"
   id="svg2650"
   inkscape:version="0.92.1 r15371"
   sodipodi:docname="gnome-launcher.svg">
  <defs
     id="defs2644" />
  <sodipodi:namedview
     id="base"
     pagecolor="#ffffff"
     bordercolor="#666666"
     borderopacity="1.0"
     inkscape:pageopacity="0.0"
     inkscape:pageshadow="2"
     inkscape:zoom="1.979899"
     inkscape:cx="410.97146"
     inkscape:cy="385.65063"
     inkscape:document-units="mm"
     inkscape:current-layer="layer1"
     showgrid="false"
     inkscape:pagecheckerboard="true"
     showguides="true"
     inkscape:guide-bbox="true"
     inkscape:window-width="3840"
     inkscape:window-height="2101"
     inkscape:window-x="0"
     inkscape:window-y="27"
     inkscape:window-maximized="1">
    <sodipodi:guide
       position="77.768602,110.08557"
       orientation="0,1"
       id="guide6931"
       inkscape:locked="false" />
    <sodipodi:guide
       position="74.272322,10.016369"
       orientation="0,1"
       id="guide6933"
       inkscape:locked="false" />
    <sodipodi:guide
       position="10.557146,95.816126"
       orientation="1,0"
       id="guide6935"
       inkscape:locked="false" />
    <sodipodi:guide
       position="109.70759,49.136905"
       orientation="1,0"
       id="guide6937"
       inkscape:locked="false" />
  </sodipodi:namedview>
  <metadata
     id="metadata2647">
    <rdf:RDF>
      <cc:Work
         rdf:about="">
        <dc:format>image/svg+xml</dc:format>
        <dc:type
           rdf:resource="http://purl.org/dc/dcmitype/StillImage" />
        <dc:title></dc:title>
      </cc:Work>
    </rdf:RDF>
  </metadata>
  <g
     inkscape:groupmode="layer"
     id="layer6"
     inkscape:label="topper"
     style="display:inline">
    <path
       style="display:inline;fill:none;fill-opacity:1;stroke:#ffffff;stroke-width:7.77788782;stroke-miterlimit:4;stroke-dasharray:none;stroke-opacity:1;fill-rule:nonzero"
       d="M 52.814762,104.07785 C 35.00778,100.88922 21.092973,88.04382 16.375497,70.439074 15.379604,66.722591 14.625263,64.994898 14.613168,59.059753 14.601963,53.53251 15.102135,51.335324 15.860249,48.304259 19.769132,32.67586 31.138177,21.104612 46.302128,16.036186 c 5.015232,-1.676293 8.327214,-2.180623 14.2199,-2.165309 12.455575,0.03227 22.86599,4.329354 31.72948,13.096666 8.017212,7.930203 12.157262,16.539781 13.401502,27.869529 2.41913,22.02806 -12.593223,43.139706 -34.56102,48.602588 -4.567342,1.13579 -13.714689,1.45518 -18.277228,0.63819 z"
       id="path6894-6"
       inkscape:connector-curvature="0"
       sodipodi:nodetypes="sscsscsscs" />
  </g>
  <g
     inkscape:label="icon"
     inkscape:groupmode="layer"
     id="layer1"
     style="display:inline"
     transform="translate(0,-177)">
    <path
       style="fill:#ffffff;fill-opacity:1;fill-rule:nonzero;stroke-width:0.51004106"
       d="m 64.082073,269.80854 c 3.88259,-1.01128 6.335857,-2.63838 10.617985,-7.04225 3.737394,-3.84365 9.131911,-11.28857 9.12817,-12.5977 -0.0019,-0.82471 -29.512242,-30.60563 -30.327077,-30.60563 -0.806663,0 -4.86794,4.22679 -4.86794,5.06634 0,0.4255 5.874422,6.66401 13.054274,13.86335 11.232984,11.26345 12.982617,13.22213 12.540688,14.03887 -0.920445,1.70104 -6.195018,7.23011 -7.90627,8.28771 -2.89774,1.79092 -5.455836,1.89173 -8.827999,0.3479 -2.412922,-1.10467 -4.864787,-3.24504 -13.260849,-11.57605 -11.492408,-11.40341 -10.634758,-10.9735 -14.143599,-7.08964 -1.457926,1.61375 -1.771191,2.27748 -1.396783,2.95949 0.657695,1.19801 17.593482,17.85086 20.450579,20.10891 2.912573,2.30191 6.137915,3.93026 8.846024,4.46605 3.029833,0.59942 2.899943,0.60427 6.092797,-0.22735 z m 1.382499,-17.95219 c 0,-0.35343 -4.150446,-4.83766 -9.223216,-9.96497 -10.090699,-10.19919 -11.866024,-12.39997 -12.790147,-15.85515 -0.94506,-3.53345 0.0083,-5.96902 3.92195,-10.01871 1.775321,-1.83707 3.955868,-3.76844 4.84566,-4.29195 l 1.617806,-0.95184 17.936913,17.91071 c 9.865308,9.85086 18.305092,17.91068 18.755059,17.91068 0.801813,0 5.028385,-4.17767 5.028385,-4.97019 0,-0.22144 -9.051352,-9.44327 -20.114137,-20.49297 l -20.114158,-20.09037 -1.435086,0.91643 c -10.828244,6.91479 -17.193332,13.76618 -18.59093,20.01134 -0.548886,2.45266 -0.515239,3.31455 0.242575,6.21359 0.483928,1.85129 1.710447,4.62831 2.725602,6.17118 1.015163,1.54289 6.395565,7.39276 11.95645,12.99975 l 10.11071,10.19455 2.563282,-2.52475 c 1.409795,-1.38861 2.563282,-2.8139 2.563282,-3.16733 z"
       id="path2663"
       inkscape:connector-curvature="0"
       sodipodi:nodetypes="cscsssccccsccccsssccccssscccscsccs" />
  </g>
</svg>
