<?xml version="1.0" encoding="UTF-8" standalone="no"?>
<!-- Created with Inkscape (http://www.inkscape.org/) -->
<svg id="svg4486" xmlns:rdf="http://www.w3.org/1999/02/22-rdf-syntax-ns#" xmlns="http://www.w3.org/2000/svg" height="19" viewBox="0 0 19 19" width="19" version="1.1" xmlns:cc="http://creativecommons.org/ns#" xmlns:dc="http://purl.org/dc/elements/1.1/">
 <defs id="defs4488">
  <filter id="filter4411" style="color-interpolation-filters:sRGB" height="1.24" width="1.24" y="-.12" x="-.12">
   <feGaussianBlur id="feGaussianBlur4413" stdDeviation="0.75"/>
  </filter>
 </defs>
 <metadata id="metadata4491">
  <rdf:RDF>
   <cc:Work rdf:about="">
    <dc:format>image/svg+xml</dc:format>
    <dc:type rdf:resource="http://purl.org/dc/dcmitype/StillImage"/>
    <dc:title/>
   </cc:Work>
  </rdf:RDF>
 </metadata>
 <g id="layer1" transform="translate(290.21 -522.86)">
  <g id="g4265" transform="translate(-289.71 -473)">
   <path id="path4267" style="color:#000000;fill:#fff" d="m85.5 59.5a7.5 7.5 0 0 0 -7.5 7.5 7.5 7.5 0 0 0 7.5 7.5 7.5 7.5 0 0 0 7.5 -7.5 7.5 7.5 0 0 0 -7.5 -7.5zm-3.5 7h7v1h-7v-1z" transform="translate(-76.5 938.36)"/>
   <rect id="rect4269" style="color:#000000;fill:none" height="19" width="19" y="995.86" x="-0.5"/>
   <path id="path4409" d="m85.5 59.5a7.5 7.5 0 0 0 -7.5 7.5 7.5 7.5 0 0 0 7.5 7.5 7.5 7.5 0 0 0 7.5 -7.5 7.5 7.5 0 0 0 -7.5 -7.5zm-3.5 7h7v1h-7v-1z" style="color:#000000;filter:url(#filter4411);fill:#fff" transform="translate(-76.5 938.36)"/>
  </g>
 </g>
</svg>
