<?xml version="1.0" encoding="UTF-8" standalone="no"?>
<svg
   xmlns:dc="http://purl.org/dc/elements/1.1/"
   xmlns:cc="http://creativecommons.org/ns#"
   xmlns:rdf="http://www.w3.org/1999/02/22-rdf-syntax-ns#"
   xmlns:svg="http://www.w3.org/2000/svg"
   xmlns="http://www.w3.org/2000/svg"
   xmlns:sodipodi="http://sodipodi.sourceforge.net/DTD/sodipodi-0.dtd"
   xmlns:inkscape="http://www.inkscape.org/namespaces/inkscape"
   width="5.079"
   height="16"
   viewBox="0 0 5.079 16"
   fill="#FFFFFF"
   opacity="0.75"
   version="1.1"
   id="svg4"
   sodipodi:docname="calendar-arrow-left.svg"
   inkscape:version="0.92+devel unknown">
  <metadata
     id="metadata10">
    <rdf:RDF>
      <cc:Work
         rdf:about="">
        <dc:format>image/svg+xml</dc:format>
        <dc:type
           rdf:resource="http://purl.org/dc/dcmitype/StillImage" />
        <dc:title></dc:title>
      </cc:Work>
    </rdf:RDF>
  </metadata>
  <defs
     id="defs8" />
  <sodipodi:namedview
     pagecolor="#ffffff"
     bordercolor="#666666"
     borderopacity="1"
     objecttolerance="10"
     gridtolerance="10"
     guidetolerance="10"
     inkscape:pageopacity="0"
     inkscape:pageshadow="2"
     inkscape:window-width="1848"
     inkscape:window-height="1137"
     id="namedview6"
     showgrid="false"
     inkscape:zoom="20.85965"
     inkscape:cx="5.390294"
     inkscape:cy="8.6891965"
     inkscape:window-x="1438"
     inkscape:window-y="30"
     inkscape:window-maximized="1"
     inkscape:current-layer="svg4"
     inkscape:document-rotation="0"
     fit-margin-top="0"
     fit-margin-left="0"
     fit-margin-right="0"
     fit-margin-bottom="0" />
  <path
     inkscape:connector-curvature="0"
     id="path5096"
     d="m 5.079,1.1113698 c 0,0.8291579 -0.267533,1.493864 -1.0535647,2.6176562 -0.5794605,0.8284575 -1.3596384,2.1616149 -1.7337283,2.9625723 -0.680164,1.4562863 -0.680164,1.4562863 0,2.9125725 0.3740899,0.8009572 1.1608066,2.1434502 1.748259,2.9833152 0.875323,1.25143 1.052797,1.728575 0.983327,2.643723 -0.08476,1.116689 -0.08476,1.116689 -1.3818826,-0.665384 -0.7134128,-0.980141 -1.8999331,-2.825145 -2.636712,-4.100009 -1.33959787,-2.3179314 -1.33959787,-2.3179314 0,-4.6358642 C 2.2063595,3.750694 4.772044,0 4.992711,0 5.040161,0 5.079001,0.50011661 5.079,1.1113698 Z"
     style="fill:#ffffff;fill-opacity:1;stroke-width:0.28095606" />
</svg>
