<?xml version="1.0" encoding="UTF-8" standalone="no"?>
<!-- Created with Inkscape (http://www.inkscape.org/) -->

<svg
   xmlns:dc="http://purl.org/dc/elements/1.1/"
   xmlns:cc="http://creativecommons.org/ns#"
   xmlns:rdf="http://www.w3.org/1999/02/22-rdf-syntax-ns#"
   xmlns:svg="http://www.w3.org/2000/svg"
   xmlns="http://www.w3.org/2000/svg"
   xmlns:sodipodi="http://sodipodi.sourceforge.net/DTD/sodipodi-0.dtd"
   xmlns:inkscape="http://www.inkscape.org/namespaces/inkscape"
   width="96"
   height="96"
   id="svg4589"
   sodipodi:version="0.32"
   inkscape:version="0.92.1 r15371"
   version="1.0"
   sodipodi:docname="opensuse-launcher.svg"
   inkscape:output_extension="org.inkscape.output.svg.inkscape"
   inkscape:export-filename="/home/jimmac/gfx/novell/pdes.local/trunk/logos/openSUSE/geeko-button.png"
   inkscape:export-xdpi="36"
   inkscape:export-ydpi="36">
  <defs
     id="defs4591" />
  <sodipodi:namedview
     id="base"
     pagecolor="#ffffff"
     bordercolor="#d8d8d8"
     borderopacity="1"
     gridtolerance="10000"
     guidetolerance="10"
     objecttolerance="10"
     inkscape:pageopacity="0.0"
     inkscape:pageshadow="2"
     inkscape:zoom="2.6295533"
     inkscape:cx="-94.324716"
     inkscape:cy="-25.992718"
     inkscape:document-units="px"
     inkscape:current-layer="layer1"
     width="200px"
     height="200px"
     borderlayer="true"
     inkscape:showpageshadow="false"
     inkscape:window-width="1848"
     inkscape:window-height="1137"
     inkscape:window-x="1438"
     inkscape:window-y="30"
     showgrid="false"
     inkscape:window-maximized="1" />
  <metadata
     id="metadata4594">
    <rdf:RDF>
      <cc:Work
         rdf:about="">
        <dc:format>image/svg+xml</dc:format>
        <dc:type
           rdf:resource="http://purl.org/dc/dcmitype/StillImage" />
        <dc:title></dc:title>
      </cc:Work>
    </rdf:RDF>
  </metadata>
  <g
     inkscape:label="Layer 1"
     inkscape:groupmode="layer"
     id="layer1"
     transform="translate(0,-104)">
    <path
       style="font-size:20.48839951px;font-family:TrebuchetMS-Bold;fill:#ffffff;fill-opacity:1;fill-rule:evenodd;stroke:none;stroke-width:0.62997764;stroke-miterlimit:4"
       d="m 48,116 c -19.880727,0 -36,16.11744 -36,36 0,19.88256 16.119275,36 36,36 19.880727,0 35.999992,-16.11744 36,-36 0,-19.88256 -16.119273,-36 -36,-36 z m 0.172377,4.98563 c 17.129762,0 31.02762,13.88645 31.02762,31.01437 0,17.12977 -13.899694,31.01437 -31.02762,31.01437 -9.24941,0 -17.549162,-4.05377 -23.230941,-10.47514 2.336211,-1.81318 6.244835,-1.37083 11.058564,-0.8221 2.306848,0.26243 4.936566,0.56264 7.650829,0.6232 7.583044,0.044 15.742111,-1.33993 20.777902,-3.54033 3.255645,-1.42779 5.340101,-2.36805 6.643088,-3.5536 0.469817,-0.38538 0.716539,-1.02921 0.967967,-1.69722 l 0.172366,-0.45084 c 0.21105,-0.53955 0.513925,-1.70056 0.649726,-2.3337 0.06055,-0.27712 0.09029,-0.57512 -0.106077,-0.72928 l -0.702761,0.1326 c -2.209582,1.32501 -7.730066,3.8486 -12.901659,3.95138 -6.408517,0.13396 -19.324784,-6.45143 -20.671823,-7.14696 l -0.132597,-0.15911 c -0.322995,-0.7708 -2.255945,-5.35955 -2.665193,-6.32487 9.297124,6.12223 17.005202,9.51087 22.91271,10.03756 6.568183,0.5836 11.691641,-3.00241 13.882871,-4.5348 0.427607,-0.2918 0.754421,-0.52061 0.888398,-0.57016 l 0.145858,-0.23868 c -0.363371,-2.30869 -3.809447,-13.48047 -6.404425,-16.16354 -0.719399,-0.73591 -1.291353,-1.4521 -2.453038,-2.1348 -9.392552,-5.47441 -31.693892,-8.77144 -32.73812,-8.92376 l -0.172375,0.053 -0.0663,0.14586 c 0,0 -0.08364,4.63089 -0.09282,5.14474 -0.765279,-0.25324 -3.138226,-1.03014 -6.537017,-1.96242 4.434677,-5.48725 11.230858,-10.3558 23.124864,-10.3558 z m 8.194473,16.41548 c 0.158264,-0.002 0.318029,-0.005 0.47735,0 5.261517,0.18902 9.395311,4.6206 9.215469,9.87845 -0.0936,2.54359 -1.165978,4.89373 -3.023203,6.62983 -1.862735,1.74528 -4.283723,2.65496 -6.841988,2.57238 -5.252347,-0.19636 -9.386146,-4.62795 -9.215472,-9.87846 0.08992,-2.54725 1.168228,-4.9125 3.036463,-6.64309 1.744587,-1.63619 3.977436,-2.52349 6.351381,-2.55911 z m -0.251935,2.81104 c -1.532356,0.0932 -2.978407,0.71536 -4.110496,1.7768 -1.290142,1.21123 -2.0514,2.85115 -2.108289,4.62763 -0.121122,3.67039 2.750951,6.75922 6.417681,6.89503 1.781977,0.0551 3.472324,-0.56924 4.773481,-1.77681 1.297487,-1.21673 2.053235,-2.87174 2.108289,-4.64088 0.122957,-3.6759 -2.762372,-6.7533 -6.430938,-6.88177 -0.222061,-0.008 -0.430817,-0.0133 -0.649728,0 z m 1.750277,3.32819 c 1.62966,0 2.943651,0.88557 2.943646,1.97568 0,1.08461 -1.313986,1.97569 -2.943646,1.97569 -1.635165,0 -2.956903,-0.89292 -2.956903,-1.97569 0,-1.09011 1.321738,-1.97568 2.956903,-1.97568 z"
       id="path2445"
       inkscape:connector-curvature="0" />
  </g>
</svg>
