<?xml version="1.0" encoding="UTF-8" standalone="no"?>
<svg
   xmlns:dc="http://purl.org/dc/elements/1.1/"
   xmlns:cc="http://creativecommons.org/ns#"
   xmlns:rdf="http://www.w3.org/1999/02/22-rdf-syntax-ns#"
   xmlns:svg="http://www.w3.org/2000/svg"
   xmlns="http://www.w3.org/2000/svg"
   xmlns:sodipodi="http://sodipodi.sourceforge.net/DTD/sodipodi-0.dtd"
   xmlns:inkscape="http://www.inkscape.org/namespaces/inkscape"
   width="120"
   viewBox="0 0 120 120"
   version="1.1"
   height="120"
   id="svg14"
   sodipodi:docname="antergos-launcher.svg"
   inkscape:version="0.92.1 r15371">
  <metadata
     id="metadata18">
    <rdf:RDF>
      <cc:Work
         rdf:about="">
        <dc:format>image/svg+xml</dc:format>
        <dc:type
           rdf:resource="http://purl.org/dc/dcmitype/StillImage" />
        <dc:title></dc:title>
      </cc:Work>
    </rdf:RDF>
  </metadata>
  <sodipodi:namedview
     pagecolor="#2ea3f2"
     bordercolor="#666666"
     borderopacity="1"
     objecttolerance="10"
     gridtolerance="10"
     guidetolerance="10"
     inkscape:pageopacity="0"
     inkscape:pageshadow="2"
     inkscape:window-width="1848"
     inkscape:window-height="1141"
     id="namedview16"
     showgrid="false"
     inkscape:zoom="2.56"
     inkscape:cx="-48.983918"
     inkscape:cy="113.13622"
     inkscape:window-x="1438"
     inkscape:window-y="30"
     inkscape:window-maximized="1"
     inkscape:current-layer="svg14" />
  <defs
     id="defs7">
    <linearGradient
       id="lg"
       y1="0.26923999"
       x2="0.28128999"
       x1="0.54637998"
       y2="0.79518998">
      <stop
         stop-color="#fff"
         stop-opacity="0"
         offset="0"
         id="stop2" />
      <stop
         stop-color="#fff"
         stop-opacity=".27451"
         offset="1"
         id="stop4" />
    </linearGradient>
  </defs>
  <g
     id="g4601"
     transform="matrix(0.12197682,0,0,0.12193515,-29.627151,75.261785)"
     style="stroke-width:8.19967937">
    <g
       style="fill:none;stroke-width:50.59272385"
       transform="matrix(0.16207768,0,0,0.16206694,52.986373,49.576605)"
       id="g4497" />
    <g
       style="fill:none;stroke:#ffffff;stroke-width:67.23474121;stroke-opacity:1"
       transform="translate(683.46054,-118.37715)"
       id="g4553">
      <path
         inkscape:connector-curvature="0"
         id="path4555"
         d="m 8.11838,294.25362 c -40.69378,-2.63233 -66.09316,-5.44624 -90,-9.97078 -62.78792,-11.88306 -106.11357,-31.43059 -136.04245,-61.37918 -27.03493,-27.05274 -38.29259,-55.37172 -38.18283,-96.05005 0.0973,-36.04703 9.5119,-73.9746 30.78012,-124 17.97449,-42.27812 66.32916,-129.2369 99.81354,-179.5 49.9802,-75.02481 96.34072,-115.7393 145.83502,-128.07444 14.31346,-3.56725 37.09946,-4.43173 51.84083,-1.9668 47.03655,7.86508 92.1473,42.08693 138.4441,105.0263 22.78762,30.9792 63.21169,97.8683 90.88971,150.3938 48.60481,92.239 65.66742,160.38936 53.44606,213.47077 -5.17843,22.49166 -15.57803,41.24054 -32.73378,59.01397 -38.80759,40.20485 -104.25988,63.13903 -204.59032,71.68754 -12.33919,1.05134 -97.82093,2.10434 -109.5,1.34887 z"
         style="fill:none;stroke:#ffffff;stroke-width:24.5990391;stroke-miterlimit:4;stroke-dasharray:none;stroke-opacity:1" />
    </g>
    <g
       style="fill:#ffffff;fill-opacity:1;stroke-width:8.19967937"
       transform="translate(960.62491,-63.682271)"
       id="g4580">
      <path
         inkscape:connector-curvature="0"
         id="path4588"
         d="m -239.25507,128.70404 c -13.21471,-0.8898 -19.11269,-1.79217 -19.88538,-3.04239 -0.31034,-0.50215 -1.85977,-0.91299 -3.44318,-0.91299 -4.03119,0 -15.63666,-2.7149 -21.00304,-4.91329 -2.475,-1.01391 -6.14185,-2.13503 -8.14855,-2.49137 -2.00671,-0.35635 -4.72254,-1.4927 -6.0352,-2.52524 -1.31265,-1.03253 -4.26284,-2.38254 -6.55598,-3.00002 -2.29313,-0.61747 -5.56597,-2.29787 -7.27296,-3.73421 -1.707,-1.43635 -4.53996,-3.1178 -6.29547,-3.73657 -5.19083,-1.82963 -11.69184,-5.86809 -11.69184,-7.26303 0,-0.7125 4.84845,-6.59214 10.77433,-13.06586 5.92588,-6.47373 12.05429,-13.45791 13.61869,-15.52041 1.5644,-2.0625 3.45737,-3.75 4.20662,-3.75 0.74924,0 1.63224,-1.07569 1.96221,-2.39042 0.32998,-1.31473 1.91355,-3.64892 3.51906,-5.18709 1.6055,-1.53817 2.91909,-3.31774 2.91909,-3.95459 0,-0.63686 0.9,-1.97241 2,-2.9679 1.1,-0.99549 2.00208,-2.30273 2.00463,-2.90499 0.003,-0.60225 1.26872,-2.44501 2.81372,-4.09501 1.545,-1.65 4.13041,-5.17953 5.74537,-7.84341 1.61495,-2.66387 3.84102,-6.26387 4.94681,-8 1.10579,-1.73612 2.90579,-4.6758 4,-6.53261 1.09421,-1.85682 3.00812,-4.62909 4.25315,-6.16061 1.24502,-1.53153 2.9257,-4.36904 3.73485,-6.3056 0.80914,-1.93655 1.90405,-3.78854 2.43313,-4.11553 1.21973,-0.75384 13.14875,-22.93867 14.70329,-27.34425 0.64082,-1.81611 2.33512,-4.99029 3.76509,-7.05375 1.42998,-2.06346 2.59996,-4.45226 2.59996,-5.30844 0,-0.85619 1.10287,-3.18187 2.45082,-5.16819 1.34795,-1.98631 3.1275,-5.60461 3.95456,-8.04066 0.82706,-2.43605 2.42251,-5.93618 3.54544,-7.77806 1.12294,-1.84189 2.04909,-4.02389 2.05811,-4.84889 0.009,-0.825 1.3607,-4.15091 3.00374,-7.39092 1.64303,-3.24001 2.98733,-6.45681 2.98733,-7.14846 0,-0.69164 1.2696,-3.67107 2.82133,-6.62096 1.55173,-2.94988 3.37719,-7.57098 4.05658,-10.2691 0.6794,-2.69812 1.96172,-6.51777 2.84961,-8.48811 2.32577,-5.16123 7.02981,-18.46942 9.35192,-26.45753 1.09921,-3.78129 2.61743,-8.07184 3.37383,-9.53455 0.7564,-1.46271 1.70003,-4.44393 2.09695,-6.62493 0.39693,-2.18099 1.76,-6.89044 3.02905,-10.46544 1.26905,-3.575 3.0527,-9.875 3.96366,-14 0.91097,-4.125 2.28648,-8.49667 3.05669,-9.71482 0.77021,-1.21815 1.41175,-3.46815 1.42564,-5 0.0139,-1.53185 1.15522,-7.06018 2.53629,-12.28518 3.14717,-11.90675 3.87866,-15.19769 6.0014,-27 0.93975,-5.225 2.34735,-10.23785 3.12799,-11.13967 0.78064,-0.90183 1.32455,-2.70183 1.20868,-4 -0.53989,-6.04889 -0.0652,-7.11707 2.85038,-6.414 3.68782,0.88928 4.94977,2.77191 6.32627,9.43776 0.63783,3.08875 1.81656,7.1076 2.61941,8.93078 0.80285,1.82318 2.12076,6.77318 2.9287,11 0.80794,4.22682 1.86037,8.40631 2.33873,9.28775 0.47837,0.88144 1.82778,6.95644 2.99869,13.5 1.17092,6.54356 2.54393,13.24738 3.05114,14.89738 1.51023,4.91292 4.05767,23.40016 4.43459,32.18264 0.19314,4.50044 0.62063,8.61863 0.94997,9.15152 3.60934,5.84002 3.17787,91.35779 -0.48319,95.76909 -0.52185,0.62879 -0.677,1.8516 -0.34478,2.71735 0.72197,1.88143 -1.15424,20.34935 -3.06602,30.1794 -0.74876,3.85 -2.47858,12.98096 -3.84405,20.29102 -1.36546,7.31007 -3.02368,13.94291 -3.68492,14.73966 -0.66124,0.79675 -1.36171,3.4723 -1.5566,5.94567 -0.34418,4.36813 -2.91487,14.45273 -4.46393,17.51161 -0.42114,0.83162 -1.27441,3.98704 -1.89615,7.01204 -0.62173,3.025 -1.97804,7.3 -3.014,9.5 -1.03596,2.2 -2.60919,6.90565 -3.49605,10.45699 -0.88687,3.55135 -2.27293,7.18678 -3.08015,8.07874 -0.80721,0.89196 -1.46766,2.35694 -1.46766,3.2555 0,2.5778 -4.04309,12.70877 -5.07185,12.70877 -0.51048,0 -0.92815,0.89089 -0.92815,1.97976 0,2.75918 -3.00722,10.29164 -4.64328,11.63048 -0.7462,0.61064 -1.35672,1.64548 -1.35672,2.29966 0,3.28128 -3.19226,7.0639 -6.75668,8.00624 -7.43293,1.96506 -31.28157,3.02433 -45.91172,2.03924 z M -67.80115,32.49866 c 0.83832,-15.19927 0.83498,-29.12115 -0.0113,-47.25 -0.73939,-15.83821 -3.32931,-40.49256 -4.72722,-45 -0.51172,-1.65 -1.9012,-9.3 -3.08773,-17 -1.18653,-7.7 -2.50621,-14.45 -2.93264,-15 -0.42642,-0.55 -1.00338,-2.35 -1.28213,-4 -1.52949,-9.05361 -4.01933,-20.12872 -4.72109,-21 -0.44299,-0.55 -1.58217,-4.6 -2.53151,-9 -0.94934,-4.4 -2.33479,-9.35 -3.07878,-11 -1.18929,-2.6376 -2.36981,-6.5895 -5.37701,-18 -0.43485,-1.65 -1.5563,-5.025 -2.4921,-7.5 -0.93581,-2.475 -2.03623,-6.08154 -2.44538,-8.01454 -0.40916,-1.933 -1.4635,-4.633 -2.34299,-6 -0.87949,-1.367 -2.35551,-5.18546 -3.28005,-8.48546 -0.92454,-3.3 -2.24153,-6.9 -2.92664,-8 -0.68511,-1.1 -1.79432,-3.8 -2.46492,-6 -0.67059,-2.2 -2.29239,-6.25 -3.60399,-9 -3.25253,-6.81951 -4.07658,-10.50872 -2.3384,-10.46881 2.62228,0.0602 31.05157,23.80744 32.28604,26.96881 0.32216,0.825 2.86222,3.975 5.64459,7 6.37768,6.93383 13.41093,16.94101 18.31747,26.06281 1.34986,2.50955 3.1644,5.15215 4.0323,5.87245 0.86791,0.7203 1.57801,2.09173 1.57801,3.04764 0,0.9559 1.03288,3.2633 2.29529,5.12755 2.74594,4.05503 5.70471,11.20589 5.70471,13.78734 0,1.02153 0.64599,2.39344 1.43553,3.0487 1.50529,1.24928 5.04174,14.90957 4.10292,15.8484 -0.29855,0.29854 0.14196,1.29948 0.97892,2.2243 3.37929,3.73408 4.65651,16.24025 4.69589,45.98081 0.0393,29.71903 -1.11534,43.45142 -4.03606,48 -0.88291,1.375 -1.47934,3.29542 -1.32541,4.2676 0.34602,2.18521 -2.55468,12.51705 -4.27655,15.2324 -0.69753,1.1 -2.07013,4.475 -3.05022,7.5 -0.98008,3.025 -2.34227,6.175 -3.02707,7 -0.6848,0.825 -1.76293,3.1149 -2.39583,5.08867 -0.6329,1.97376 -2.2648,5.09869 -3.62643,6.94428 -1.36163,1.84558 -2.47569,3.7496 -2.47569,4.23115 0,1.38503 -5.99827,9.7359 -6.99311,9.7359 -0.51732,0 -0.61102,-5.18536 -0.22137,-12.25 z m -341.44044,-46.29313 c -0.32569,-0.84872 -0.31058,-1.8247 0.0336,-2.16885 0.34415,-0.34414 -0.0766,-1.40181 -0.93506,-2.35037 -4.39687,-4.85848 -6.72137,-43.59418 -4.01178,-66.85276 0.92363,-7.9283 2.39883,-16.0283 3.27821,-18 0.87938,-1.97169 1.50669,-3.99046 1.39401,-4.48616 -0.39182,-1.72372 1.98332,-11.12376 3.81505,-15.09873 1.01379,-2.2 2.61243,-6.475 3.55252,-9.5 0.94009,-3.025 2.27376,-6.175 2.96371,-7 0.68995,-0.825 2.02968,-3.49763 2.97718,-5.93919 2.00921,-5.17743 4.0246,-6.98491 7.83752,-7.02901 1.5125,-0.0175 2.75,-0.42693 2.75,-0.90987 0,-0.48295 2.8125,-1.87578 6.25,-3.09518 3.4375,-1.21941 7.825,-3.03036 9.75,-4.02433 1.925,-0.99398 5.525,-2.39174 8,-3.10614 2.475,-0.7144 4.725,-1.57685 5,-1.91655 0.90481,-1.11771 9.59774,-4.97973 11.20874,-4.97973 0.8675,0 1.82725,-0.65142 2.13277,-1.44759 0.30553,-0.79617 2.26617,-1.90959 4.35699,-2.47426 2.09083,-0.56468 6.2765,-2.62868 9.3015,-4.58669 3.025,-1.958 6.625,-3.84093 8,-4.18428 1.375,-0.34335 3.85828,-1.65185 5.5184,-2.90777 1.66011,-1.25591 6.66802,-4.11018 11.12868,-6.34281 4.46067,-2.23263 8.66999,-4.73372 9.35405,-5.55797 0.68407,-0.82424 1.7763,-1.49863 2.42718,-1.49863 1.37891,0 16.08439,-9.40252 16.98529,-10.8602 0.33513,-0.54226 1.98458,-1.28798 3.66544,-1.65716 1.68085,-0.36918 3.29433,-1.29205 3.5855,-2.05083 0.29117,-0.75878 2.62326,-2.73201 5.18243,-4.38497 6.23836,-4.02933 8.58461,-5.69444 15.66461,-11.11701 3.30637,-2.53235 6.95314,-5.10817 8.10393,-5.72406 2.28722,-1.22408 9.10642,-6.6483 13.96986,-11.11209 6.37092,-5.8474 7.8341,-6.38845 15.16658,-5.6082 3.71143,0.39494 7.07113,0.91491 7.466,1.1555 0.68728,0.41875 -0.6296,3.79259 -5.8388,14.95893 -1.30853,2.80496 -2.36928,5.50496 -2.35722,6 0.0191,0.7829 -4.71308,10.87357 -8.62896,18.40009 -5.1507,9.89988 -7.48429,13.9384 -8.37059,14.48617 -0.56231,0.34753 -1.02238,1.51615 -1.02238,2.59695 0,1.0808 -1.575,4.25474 -3.5,7.0532 -1.925,2.79846 -3.5,5.64286 -3.5,6.3209 0,0.67804 -0.85888,2.01008 -1.90862,2.96009 -1.04975,0.95 -2.48142,3.15725 -3.18149,4.90498 -0.70008,1.74774 -2.5412,4.65587 -4.09138,6.46251 -1.55018,1.80663 -2.8368,3.83163 -2.85915,4.5 -0.0224,0.66836 -1.37235,2.7732 -3,4.67743 -1.62765,1.90422 -2.95936,4.0162 -2.95936,4.69329 0,0.67709 -0.82859,1.81909 -1.8413,2.53778 -1.01272,0.71868 -2.40009,2.35945 -3.08306,3.64615 -0.68296,1.2867 -3.03666,4.6617 -5.23044,7.5 -2.19379,2.8383 -5.84741,7.63555 -8.11917,10.66055 -2.27175,3.025 -5.56852,7.075 -7.32616,9 -1.75763,1.925 -5.82913,6.41889 -9.04778,9.98641 -3.21865,3.56753 -11.02709,11.81538 -17.35209,18.32857 -6.325,6.51318 -12.07887,12.46603 -12.78639,13.22854 -0.70751,0.76252 -2.62001,2.17419 -4.25,3.13705 -1.62998,0.96285 -2.96361,2.05257 -2.96361,2.42158 0,0.36901 -3.24254,3.30949 -7.20565,6.53439 -3.96311,3.2249 -9.25061,7.76834 -11.75,10.09652 -2.49939,2.32818 -4.85849,4.24068 -5.24243,4.25 -0.38395,0.009 -3.31171,2.19202 -6.50614,4.85045 -3.19443,2.65843 -7.77831,6.14593 -10.1864,7.75 -6.27807,4.18193 -8.24022,5.57093 -12.24259,8.66649 -1.95556,1.5125 -3.99455,2.75 -4.53107,2.75 -0.53653,0 -2.4876,1.35 -4.33572,3 -1.84812,1.65 -3.91964,3 -4.60338,3 -0.68374,0 -2.5152,1.06343 -4.06989,2.36317 -1.5547,1.29974 -3.79859,2.66717 -4.98642,3.03872 -1.18784,0.37156 -2.70544,1.33314 -3.37245,2.13684 -1.56529,1.88605 -2.87902,1.85637 -3.62278,-0.0819 z"
         style="fill:#ffffff;fill-opacity:1;stroke-width:8.19967937" />
    </g>
  </g>
</svg>
