<?xml version="1.0" encoding="UTF-8" standalone="no"?>
<svg
   xmlns:dc="http://purl.org/dc/elements/1.1/"
   xmlns:cc="http://creativecommons.org/ns#"
   xmlns:rdf="http://www.w3.org/1999/02/22-rdf-syntax-ns#"
   xmlns:svg="http://www.w3.org/2000/svg"
   xmlns="http://www.w3.org/2000/svg"
   xmlns:sodipodi="http://sodipodi.sourceforge.net/DTD/sodipodi-0.dtd"
   xmlns:inkscape="http://www.inkscape.org/namespaces/inkscape"
   enable-background="new 0 0 515.91 728.5"
   height="120"
   id="Layer_1"
   version="1.1"
   viewBox="0 0 120.00001 120"
   width="120"
   xml:space="preserve"
   sodipodi:docname="gentoo_launcher.svg"
   inkscape:version="0.92.2 (5c3e80d, 2017-08-06)"><metadata
     id="metadata832"><rdf:RDF><cc:Work
         rdf:about=""><dc:format>image/svg+xml</dc:format><dc:type
           rdf:resource="http://purl.org/dc/dcmitype/StillImage" /><dc:title></dc:title></cc:Work></rdf:RDF></metadata><sodipodi:namedview
     pagecolor="#554977"
     bordercolor="#666666"
     borderopacity="1"
     objecttolerance="10"
     gridtolerance="10"
     guidetolerance="10"
     inkscape:pageopacity="0"
     inkscape:pageshadow="2"
     inkscape:window-width="1848"
     inkscape:window-height="1137"
     id="namedview830"
     showgrid="false"
     inkscape:zoom="3.6875"
     inkscape:cx="67.052548"
     inkscape:cy="107.04076"
     inkscape:window-x="1438"
     inkscape:window-y="30"
     inkscape:window-maximized="1"
     inkscape:current-layer="Layer_1" /><defs
     id="defs7" /><g
     id="g4109"
     transform="matrix(0.24347825,0,0,0.24347825,38.869223,6.7822458)"
     style="stroke-width:4.1071434"><g
       id="g4077"
       style="fill:#ffffff;fill-opacity:1;stroke-width:4.1071434"
       transform="matrix(0.73897891,0,0,0.73897891,-45.083489,16.073215)"><path
         d="m 172.9375,50.75 c -10.43795,0.0742 -20.73625,1.004063 -30.625,2.8125 C 36.641252,72.886249 -37.70375,164.30125 -44,224.53125 c -3.08875,29.5525 12.8375,51.6425 21.625,61.40625 23.749999,26.38625 71.097501,46.55125 101.53125,63.25 -43.997498,37.51375 -64.190001,55.82 -84.0625,76.6875 -29.737499,31.2275 -50.655,65.6 -50.71875,90.21875 -0.0225,7.93 -1.31375,33.22625 9,53.1875 3.87875,7.5075 14.912501,32.55375 48.15625,51.3125 21.248749,11.99 51.520001,16.385 81.15625,12.15625 91.7175,-13.09 214.56375,-90.8675 302.21875,-163.3125 55.865,-46.17 96.705,-90.9075 108.5,-112.9375 9.51625,-17.77375 10.5825,-49.67875 5.0625,-69.6875 C 482.785,229.97 355.29375,113.57875 251.0625,66.71875 227.18293,55.983321 199.61227,50.560376 172.9375,50.75 Z m -0.15625,1.625 c 28.47509,-0.396657 56.62617,6.227735 81.28125,18.34375 84.18125,41.36875 226.38,157.62125 236.875,216.09375 12.97125,72.265 -241.5275,267.935 -396.34375,298.46875 -60.061247,11.79 -111.260001,14.99375 -134.625,-48.4375 C -60.284999,481.855 -21.008747,441.62875 36.8125,388.78125 60.822499,366.8375 79.977501,350.445 108.78125,326.125 110.4375,324.46875 -29.97625,276.0525 -34.46875,220.5 -39.0875,163.39875 51.308753,58.02625 167.0625,52.5625 c 1.9,-0.08937 3.82041,-0.161056 5.71875,-0.1875 z"
         id="path87"
         style="font-size:16px;font-family:'Times New Roman';fill:#ffffff;fill-opacity:1;stroke:none;stroke-width:4.1071434;marker-start:none;marker-end:none"
         transform="matrix(0.80000004,0,0,0.80000004,-8.3085983e-6,0)"
         inkscape:connector-curvature="0" /><path
         d="m 126.19051,52.624633 c -45.476002,4.792 -54.185002,10.645 -95.382002,41.814 -13.808,10.446997 -39.2199999,35.864997 -45.732,66.019997 -2.479,11.484 0.452,21.399 8.7230001,28.353 26.4849999,22.266 70.8119999,40.33 107.1780019,57.793 10.652,5.114 3.6,14.388 -13.577002,29.259 -43.344,37.524 -101.946,83.201 -106.037,118.007 -1.928,16.401 3.687,38.687 23.5950001,50.092 23.2549999,13.323 71.5289999,4.627 103.7630019,-7.376 47.105,-17.541 108.981,-56.253 158.105,-94.306 51.083,-39.57 98.578,-89.83 100.928,-98.027 2.885,-10.066 2.597,-19.364 -2.971,-30.053 -8.743,-16.787 -20.432,-29.26 -32.983,-43.222 -33.677,-35.504 -69.31,-66.701 -111.941,-90.606997 -30.786,-17.264 -57.873,-31.519 -93.669,-27.747 z m 66.801,79.596997 c 32.854,15.884 66.592,57.605 -0.293,81.619 -18.188,6.53 -75.868,-16.037 -74.103,-46.833 2.575,-45.492 34.281,-54.18 74.396,-34.786 z"
         id="path95"
         style="font-size:16px;font-family:'Times New Roman';fill:#ffffff;fill-opacity:1;stroke:none;stroke-width:4.1071434;marker-start:none;marker-end:none"
         inkscape:connector-curvature="0" /><path
         d="m 126.19051,52.624633 c -45.476002,4.792 -54.185002,10.645 -95.382002,41.814 -13.808,10.446997 -39.2199999,35.864997 -45.732,66.019997 -2.479,11.484 0.452,21.399 8.7230001,28.353 26.4849999,22.266 70.8119999,40.33 107.1780019,57.793 10.652,5.114 3.6,14.388 -13.577002,29.259 -43.344,37.524 -101.946,83.201 -106.037,118.007 -1.928,16.401 3.687,38.687 23.5950001,50.092 23.2549999,13.323 71.5289999,4.627 103.7630019,-7.376 47.105,-17.541 108.981,-56.253 158.105,-94.306 51.083,-39.57 98.578,-89.83 100.928,-98.027 2.885,-10.066 2.597,-19.364 -2.971,-30.053 -8.743,-16.787 -20.432,-29.26 -32.983,-43.222 -33.677,-35.504 -69.31,-66.701 -111.941,-90.606997 -30.786,-17.264 -57.873,-31.519 -93.669,-27.747 z m 66.801,79.596997 c 32.854,15.884 66.592,57.605 -0.293,81.619 -18.188,6.53 -75.868,-16.037 -74.103,-46.833 2.575,-45.492 34.281,-54.18 74.396,-34.786 z"
         id="path4000-4"
         style="font-size:16px;font-family:'Times New Roman';fill:#ffffff;fill-opacity:1;stroke:none;stroke-width:4.1071434;marker-start:none;marker-end:none"
         inkscape:connector-curvature="0" /><path
         d="m 126.19051,52.624633 c -45.476002,4.792 -54.185002,10.645 -95.382002,41.814 -13.808,10.446997 -39.2199999,35.864997 -45.732,66.019997 -2.479,11.484 0.452,21.399 8.7230001,28.353 26.4849999,22.266 70.8119999,40.33 107.1780019,57.793 10.652,5.114 3.6,14.388 -13.577002,29.259 -43.344,37.524 -101.946,83.201 -106.037,118.007 -1.928,16.401 3.687,38.687 23.5950001,50.092 23.2549999,13.323 71.5289999,4.627 103.7630019,-7.376 47.105,-17.541 108.981,-56.253 158.105,-94.306 51.083,-39.57 98.578,-89.83 100.928,-98.027 2.885,-10.066 2.597,-19.364 -2.971,-30.053 -8.743,-16.787 -20.432,-29.26 -32.983,-43.222 -33.677,-35.504 -69.31,-66.701 -111.941,-90.606997 -30.786,-17.264 -57.873,-31.519 -93.669,-27.747 z m 66.801,79.596997 c 32.854,15.884 66.592,57.605 -0.293,81.619 -18.188,6.53 -75.868,-16.037 -74.103,-46.833 2.575,-45.492 34.281,-54.18 74.396,-34.786 z"
         id="path4005"
         style="font-size:16px;font-family:'Times New Roman';fill:#ffffff;fill-opacity:1;stroke:none;stroke-width:4.1071434;marker-start:none;marker-end:none"
         inkscape:connector-curvature="0" /><path
         d="m 206.4375,176 c -0.49739,-0.001 -0.99243,0.0149 -1.5,0.0312 -14.50206,0.46633 -32.93873,7.82338 -34.5,28 -1.30793,16.90198 9.12044,29.30194 20.46875,36.65625 -5.4628,-4.54675 -9.78821,-11.17951 -9.125,-19.75 1.20777,-15.60834 19.12244,-18.51006 27.375,-16.25 9.88229,2.70644 26.30959,14.41624 24.84375,25.15625 -1.83542,13.4456 -13.10622,19.27299 -26.53125,18.0625 0.76978,0.16849 1.51508,0.30846 2.21875,0.40625 23.62532,3.2842 44.00295,-6.1712 47.1875,-29.5 2.42541,-17.77079 -24.77345,-37.17809 -41.125,-41.65625 -2.61364,-0.71578 -5.83077,-1.14879 -9.3125,-1.15625 z"
         id="path4067"
         style="font-size:16px;font-family:'Times New Roman';fill:#ffffff;fill-opacity:1;stroke:none;stroke-width:4.1071434;marker-start:none;marker-end:none"
         transform="matrix(0.80000004,0,0,0.80000004,-8.3085983e-6,0)"
         inkscape:connector-curvature="0" /></g></g></svg>